<svg width="322" height="96" viewBox="0 0 322 96" fill="none" xmlns="http://www.w3.org/2000/svg">
<path d="M316.865 88.795C313.575 89.8226 310.268 89.8226 306.977 88.795C305.104 88.2099 303.637 86.6937 303.07 84.7582C302.076 81.3577 302.076 77.9409 303.07 74.5409C303.637 72.6054 305.105 71.0892 306.977 70.5041C310.268 69.4765 313.575 69.4765 316.865 70.5041C318.738 71.0892 320.206 72.6054 320.771 74.5403C321.766 77.9403 321.766 81.3577 320.771 84.7576C320.205 86.6926 318.738 88.2093 316.865 88.7944L316.865 88.795Z" fill="#262626"/>
<path d="M152.517 85.1729C143.722 89.1015 134.558 90.1142 125.118 88.2007C119.744 87.1113 115.202 83.251 113.025 77.9229C109.201 68.5618 108.128 58.8498 109.816 48.8813C110.777 43.2064 114.368 38.4473 119.373 36.2109C128.169 32.2822 137.331 31.2696 146.771 33.1831C152.144 34.2727 156.687 38.1329 158.863 43.4595C162.686 52.819 163.76 62.5325 162.072 72.5011C161.111 78.1743 157.521 82.9349 152.515 85.1714L152.517 85.1729Z" fill="#262626"/>
<path d="M25.2067 55.1746C26.6254 55.1037 28.2037 55.0505 29.9417 55.015C31.7151 54.9795 34.4815 54.9618 38.2411 54.9618C42.249 54.9618 45.3169 54.9795 47.445 55.015C49.6085 55.0505 51.6302 55.1214 53.51 55.2278C50.779 48.0279 48.1898 41.5727 45.7425 35.8624C43.2953 30.1521 41.3091 25.8428 39.784 22.9345H39.0391C37.6914 25.4527 35.8825 29.3364 33.6126 34.5856C31.3781 39.7994 28.5762 46.6624 25.2067 55.1746ZM39.0391 61.1864H33.3466C29.2678 61.1864 26.5545 61.2928 25.2067 61.5056C23.8944 61.7184 23.0609 62.0908 22.7062 62.6228C22.458 62.9421 22.1565 63.4563 21.8018 64.1657C21.4826 64.875 20.9329 66.2405 20.1526 68.2622C20.0107 68.6524 19.7979 69.2021 19.5142 69.9115C17.9181 73.8484 17.1201 76.3843 17.1201 77.5193C17.1201 78.4769 17.3684 79.2572 17.8649 79.8602C18.3615 80.4631 19.1595 80.9597 20.259 81.3498C20.6491 81.4917 21.1634 81.669 21.8018 81.8818C24.1427 82.6976 25.3131 83.6197 25.3131 84.6483C25.3131 85.9606 24.32 86.9182 22.3338 87.5212C20.3831 88.1241 17.1555 88.4256 12.6511 88.4256C8.18221 88.4256 4.97239 88.1419 3.02166 87.5744C1.1064 86.9714 0.148775 85.9961 0.148775 84.6483C0.148775 83.5843 1.31921 82.6976 3.66008 81.9882C4.75958 81.669 5.57534 81.3853 6.10735 81.137C7.84527 80.0375 10.0088 76.3489 12.5979 70.0711L12.864 69.3794C15.2758 63.5273 18.5211 55.7244 22.5998 45.9707C31.3249 25.0093 35.9357 13.4114 36.4323 11.1769C36.4677 10.9641 36.5387 10.6272 36.6451 10.1661C36.9997 8.46362 38.1524 7.6124 40.1032 7.6124C41.2736 7.6124 42.1958 7.87841 42.8697 8.41042C43.5435 8.90697 44.377 10.237 45.3701 12.4005C49.4134 21.3384 55.1238 35.224 62.501 54.0574C65.9769 62.9243 68.6015 69.5745 70.3749 74.008C70.5167 74.3272 70.6763 74.7173 70.8537 75.1784C72.2015 78.5124 73.5847 80.5695 75.0034 81.3498C75.3936 81.5626 76.0852 81.8286 77.0783 82.1478C79.1709 82.8217 80.2172 83.6907 80.2172 84.7547C80.2172 85.9961 79.0999 86.9182 76.8655 87.5212C74.631 88.1241 71.1374 88.4256 66.3848 88.4256C61.5966 88.4256 58.0853 88.1241 55.8508 87.5212C53.6518 86.9182 52.5523 85.9961 52.5523 84.7547C52.5523 83.6907 53.8114 82.7153 56.3297 81.8286C56.8617 81.6513 57.305 81.4917 57.6597 81.3498C58.6883 81.1725 59.4508 80.7823 59.9474 80.1794C60.4439 79.5764 60.6922 78.7607 60.6922 77.7321C60.6922 76.5971 60.2488 74.6287 59.3621 71.8267C58.4755 68.9893 57.3227 66.1696 55.904 63.3677C55.443 62.5519 54.5208 61.9844 53.1376 61.6652C51.7543 61.346 49.041 61.1864 44.9977 61.1864H39.0391ZM83.7561 40.0654H79.1808C78.6488 40.0654 78.2409 39.9767 77.9572 39.7994C77.6734 39.5866 77.5316 39.3028 77.5316 38.9481V37.4585C77.5316 36.3945 78.8616 34.3905 81.5217 31.4467C82.302 30.631 82.8872 29.9925 83.2773 29.5315C83.7029 29.0704 84.2704 28.432 84.9798 27.6162C87.6399 24.566 89.4487 23.0409 90.4063 23.0409C90.9738 23.0409 91.3994 23.1827 91.6832 23.4665C92.0024 23.7502 92.162 24.1581 92.162 24.6901V34.3728H103.122C103.831 34.3728 104.327 34.5501 104.611 34.9048C104.93 35.224 105.09 35.7738 105.09 36.5541V37.9905C105.09 38.6999 104.93 39.2319 104.611 39.5866C104.292 39.9058 103.795 40.0654 103.122 40.0654H93.3324C92.9777 40.0654 92.694 40.225 92.4812 40.5442C92.2684 40.8279 92.162 41.2535 92.162 41.821V71.3479C92.162 75.8168 92.5876 78.8493 93.4388 80.4454C94.3255 82.006 95.8506 82.7862 98.0142 82.7862C99.0427 82.7862 100.249 82.5025 101.632 81.935C103.015 81.3321 103.884 81.0306 104.239 81.0306C104.806 81.0306 105.25 81.1902 105.569 81.5094C105.923 81.8286 106.101 82.2542 106.101 82.7862C106.101 84.3468 104.913 85.8719 102.536 87.3616C100.16 88.8158 97.4999 89.5428 94.5561 89.5428C90.6901 89.5428 87.9236 88.3547 86.2566 85.9783C84.5896 83.602 83.7561 79.5941 83.7561 73.9548V40.0654ZM180.506 40.5974C180.506 41.2358 180.56 41.6614 180.666 41.8742C180.772 42.0516 180.932 42.1402 181.145 42.1402C181.641 42.1402 182.333 41.5373 183.22 40.3314C183.61 39.7994 183.894 39.4092 184.071 39.1609C186.022 36.7491 188.097 34.958 190.296 33.7876C192.495 32.5817 194.889 31.9787 197.478 31.9787C200.102 31.9787 202.496 32.5107 204.66 33.5748C206.823 34.6033 208.686 36.1107 210.246 38.0969C210.885 38.9127 211.505 39.9412 212.108 41.1826C212.711 42.3885 213.172 42.9915 213.491 42.9915C214.094 42.9915 214.839 42.2998 215.726 40.9166C216.293 40.0299 216.79 39.3028 217.216 38.7353C219.06 36.3945 221.064 34.692 223.227 33.628C225.426 32.5285 227.962 31.9787 230.835 31.9787C234.666 31.9787 238 32.8832 240.837 34.692C243.71 36.4654 245.749 38.9481 246.955 42.1402C247.7 44.0555 248.232 46.2722 248.551 48.7904C248.87 51.3086 249.03 54.8909 249.03 59.5371V68.9538C249.03 73.7774 249.136 77.0227 249.349 78.6897C249.562 80.3567 249.917 81.4207 250.413 81.8818C250.803 82.2365 251.743 82.6444 253.233 83.1055C254.723 83.5665 255.467 84.2582 255.467 85.1803C255.467 86.3153 254.616 87.1488 252.914 87.6808C251.247 88.1773 248.534 88.4256 244.774 88.4256C241.014 88.4256 238.283 88.1773 236.581 87.6808C234.914 87.1488 234.08 86.3153 234.08 85.1803C234.08 84.2582 234.896 83.5488 236.528 83.0523C238.195 82.5202 239.241 81.9173 239.667 81.2434C240.021 80.605 240.27 78.7429 240.411 75.6572C240.553 72.5715 240.624 66.7016 240.624 58.0475C240.624 51.3441 239.791 46.556 238.124 43.6831C236.457 40.7747 233.743 39.3205 229.984 39.3205C227.359 39.3205 224.717 40.1895 222.057 41.9274C219.397 43.6653 217.34 45.8821 215.885 48.5776C215.46 49.3934 215.158 50.8476 214.981 52.9402C214.804 55.0327 214.715 58.8455 214.715 64.3785V68.9538C214.715 73.7774 214.821 77.0227 215.034 78.6897C215.247 80.3567 215.602 81.4207 216.098 81.8818C216.488 82.2365 217.446 82.6444 218.971 83.1055C220.496 83.5665 221.259 84.2582 221.259 85.1803C221.259 86.3153 220.425 87.1488 218.758 87.6808C217.091 88.1773 214.396 88.4256 210.672 88.4256C206.983 88.4256 204.305 88.1773 202.638 87.6808C201.007 87.1488 200.191 86.3153 200.191 85.1803C200.191 84.2582 201.007 83.5488 202.638 83.0523C204.305 82.5202 205.352 81.9173 205.777 81.2434C206.132 80.6759 206.38 79.0976 206.522 76.5085C206.664 73.9193 206.735 67.7657 206.735 58.0475C206.735 51.3441 205.884 46.556 204.181 43.6831C202.514 40.7747 199.783 39.3205 195.988 39.3205C193.399 39.3205 190.739 40.2072 188.008 41.9806C185.312 43.754 183.202 45.9885 181.677 48.684C181.287 49.3934 181.003 50.3333 180.826 51.5037C180.684 52.6741 180.613 54.6426 180.613 57.4091V59.8032C180.613 67.7834 180.684 73.21 180.826 76.0828C180.967 78.9203 181.216 80.6404 181.57 81.2434C181.996 81.9173 183.025 82.5202 184.656 83.0523C186.323 83.5488 187.157 84.2582 187.157 85.1803C187.157 86.3153 186.305 87.1488 184.603 87.6808C182.936 88.1773 180.223 88.4256 176.463 88.4256C172.668 88.4256 169.919 88.1773 168.217 87.6808C166.514 87.1488 165.663 86.3153 165.663 85.1803C165.663 84.2582 166.479 83.5488 168.11 83.0523C169.777 82.5202 170.824 81.9173 171.249 81.2434C171.639 80.534 171.905 78.6011 172.047 75.4444C172.225 72.2523 172.313 67.0386 172.313 59.8032C172.313 54.3057 172.189 50.0495 171.941 47.0348C171.728 44.02 171.391 42.1757 170.93 41.5018C170.611 41.0053 169.511 40.6329 167.632 40.3846C165.752 40.1008 164.812 39.3383 164.812 38.0969C164.812 36.8201 166.302 35.49 169.281 34.1068C172.296 32.6881 175.169 31.9787 177.9 31.9787C178.857 31.9787 179.531 32.2625 179.921 32.83C180.311 33.3974 180.506 34.4615 180.506 36.022V40.5974ZM284.809 33.2024C285.519 32.7767 286.104 32.4753 286.565 32.2979C287.061 32.0851 287.487 31.9787 287.842 31.9787C289.154 31.9787 290.466 33.2024 291.779 35.6496C293.091 38.0614 293.747 40.6861 293.747 43.5235C293.747 44.7294 293.499 45.6693 293.002 46.3432C292.506 47.017 291.832 47.354 290.981 47.354C289.739 47.354 288.64 46.29 287.682 44.1619C287.469 43.7008 287.31 43.3639 287.203 43.1511C285.962 40.5264 284.632 38.7531 283.213 37.8309C281.794 36.9087 279.879 36.4477 277.467 36.4477C274.949 36.4477 272.803 37.2457 271.03 38.8417C269.292 40.4023 268.423 42.3353 268.423 44.6407C268.423 48.755 272.91 52.7273 281.883 56.5579C283.656 57.3382 285.022 57.9411 285.98 58.3667C289.065 59.75 291.459 61.7361 293.162 64.3253C294.9 66.879 295.769 69.7519 295.769 72.944C295.769 77.8385 294.013 81.8286 290.502 84.9143C286.99 88 282.433 89.5428 276.829 89.5428C275.056 89.5428 273.034 89.2414 270.764 88.6384C268.53 88.0709 267.182 87.7872 266.721 87.7872C266.224 87.7872 265.55 87.9823 264.699 88.3724C263.883 88.7626 263.316 88.9576 262.997 88.9576C262.003 88.9576 260.957 87.6631 259.858 85.0739C258.758 82.4848 258.208 79.7892 258.208 76.9873C258.208 75.9232 258.492 75.072 259.06 74.4336C259.663 73.7597 260.425 73.4228 261.347 73.4228C262.376 73.4228 263.511 74.5223 264.752 76.7213C265.213 77.5725 265.568 78.2109 265.816 78.6365C266.951 80.5872 268.459 82.0946 270.338 83.1587C272.254 84.2227 274.382 84.7547 276.723 84.7547C279.95 84.7547 282.575 83.8857 284.596 82.1478C286.618 80.4099 287.629 78.1754 287.629 75.4444C287.629 73.2809 287.044 71.4543 285.873 69.9647C284.703 68.4395 282.788 67.0386 280.127 65.7617C279.17 65.3007 277.662 64.68 275.605 63.8997C270.179 61.7716 266.26 59.5549 263.848 57.2495C262.465 55.9372 261.4 54.4298 260.656 52.7273C259.946 51.0249 259.592 49.1983 259.592 47.2476C259.592 42.8141 261.241 39.1609 264.539 36.2881C267.838 33.4152 272.041 31.9787 277.148 31.9787C278.212 31.9787 279.383 32.0851 280.659 32.2979C281.936 32.5107 283.32 32.8122 284.809 33.2024Z" fill="#262626"/>
</svg>
